<svg width="246" height="167" viewBox="0 0 246 167" fill="none" xmlns="http://www.w3.org/2000/svg">
<ellipse cx="123" cy="83.5" rx="123" ry="83.5" fill="url(#paint0_linear_3_24)"/>
<ellipse cx="123" cy="83.5" rx="107.486" ry="69.522" fill="white"/>
<path d="M75.1791 92.4629V94.3027H65.9447V92.4629H75.1791ZM66.2963 85.127V102.189H64.0345V85.127H66.2963ZM77.1478 85.127V102.189H74.8978V85.127H77.1478ZM83.1947 89.5098V102.189H81.015V89.5098H83.1947ZM80.851 86.1465C80.851 85.7949 80.9564 85.498 81.1674 85.2559C81.3861 85.0137 81.7064 84.8926 82.1283 84.8926C82.5424 84.8926 82.8588 85.0137 83.0775 85.2559C83.3041 85.498 83.4174 85.7949 83.4174 86.1465C83.4174 86.4824 83.3041 86.7715 83.0775 87.0137C82.8588 87.248 82.5424 87.3652 82.1283 87.3652C81.7064 87.3652 81.3861 87.248 81.1674 87.0137C80.9564 86.7715 80.851 86.4824 80.851 86.1465ZM88.8314 92.0293V102.189H86.6517V89.5098H88.7142L88.8314 92.0293ZM88.3861 95.3691L87.3783 95.334C87.3861 94.4668 87.4994 93.666 87.7181 92.9316C87.9369 92.1895 88.2611 91.5449 88.6908 90.998C89.1205 90.4512 89.6556 90.0293 90.2963 89.7324C90.9369 89.4277 91.6791 89.2754 92.5228 89.2754C93.1166 89.2754 93.6635 89.3613 94.1635 89.5332C94.6635 89.6973 95.097 89.959 95.4642 90.3184C95.8314 90.6777 96.1166 91.1387 96.3197 91.7012C96.5228 92.2637 96.6244 92.9434 96.6244 93.7402V102.189H94.4564V93.8457C94.4564 93.1816 94.3431 92.6504 94.1166 92.252C93.8978 91.8535 93.5853 91.5645 93.1791 91.3848C92.7728 91.1973 92.2963 91.1035 91.7494 91.1035C91.1088 91.1035 90.5736 91.2168 90.1439 91.4434C89.7142 91.6699 89.3705 91.9824 89.1127 92.3809C88.8549 92.7793 88.6674 93.2363 88.5502 93.752C88.4408 94.2598 88.3861 94.7988 88.3861 95.3691ZM96.601 94.1738L95.1478 94.6191C95.1556 93.9238 95.2689 93.2559 95.4877 92.6152C95.7142 91.9746 96.0385 91.4043 96.4603 90.9043C96.89 90.4043 97.4174 90.0098 98.0424 89.7207C98.6674 89.4238 99.3822 89.2754 100.187 89.2754C100.867 89.2754 101.468 89.3652 101.992 89.5449C102.523 89.7246 102.968 90.002 103.328 90.377C103.695 90.7441 103.972 91.2168 104.16 91.7949C104.347 92.373 104.441 93.0605 104.441 93.8574V102.189H102.261V93.834C102.261 93.123 102.148 92.5723 101.921 92.1816C101.703 91.7832 101.39 91.5059 100.984 91.3496C100.585 91.1855 100.109 91.1035 99.5541 91.1035C99.0775 91.1035 98.6556 91.1855 98.2885 91.3496C97.9213 91.5137 97.6127 91.7402 97.3627 92.0293C97.1127 92.3105 96.9213 92.6348 96.7885 93.002C96.6635 93.3691 96.601 93.7598 96.601 94.1738ZM115.199 100.021V93.4941C115.199 92.9941 115.097 92.5605 114.894 92.1934C114.699 91.8184 114.402 91.5293 114.003 91.3262C113.605 91.123 113.113 91.0215 112.527 91.0215C111.98 91.0215 111.499 91.1152 111.085 91.3027C110.679 91.4902 110.359 91.7363 110.124 92.041C109.898 92.3457 109.785 92.6738 109.785 93.0254H107.617C107.617 92.5723 107.734 92.123 107.968 91.6777C108.203 91.2324 108.538 90.8301 108.976 90.4707C109.421 90.1035 109.953 89.8145 110.57 89.6035C111.195 89.3848 111.89 89.2754 112.656 89.2754C113.578 89.2754 114.39 89.4316 115.093 89.7441C115.804 90.0566 116.359 90.5293 116.757 91.1621C117.163 91.7871 117.367 92.5723 117.367 93.5176V99.4238C117.367 99.8457 117.402 100.295 117.472 100.771C117.55 101.248 117.663 101.658 117.812 102.002V102.189H115.55C115.441 101.939 115.355 101.607 115.292 101.193C115.23 100.771 115.199 100.381 115.199 100.021ZM115.574 94.502L115.597 96.0254H113.406C112.788 96.0254 112.238 96.0762 111.753 96.1777C111.269 96.2715 110.863 96.416 110.535 96.6113C110.206 96.8066 109.956 97.0527 109.785 97.3496C109.613 97.6387 109.527 97.9785 109.527 98.3691C109.527 98.7676 109.617 99.1309 109.796 99.459C109.976 99.7871 110.245 100.049 110.605 100.244C110.972 100.432 111.421 100.525 111.953 100.525C112.617 100.525 113.203 100.385 113.71 100.104C114.218 99.8223 114.62 99.4785 114.917 99.0723C115.222 98.666 115.386 98.2715 115.41 97.8887L116.335 98.9316C116.281 99.2598 116.132 99.623 115.89 100.021C115.648 100.42 115.324 100.803 114.917 101.17C114.519 101.529 114.042 101.83 113.488 102.072C112.941 102.307 112.324 102.424 111.636 102.424C110.777 102.424 110.023 102.256 109.374 101.92C108.734 101.584 108.234 101.135 107.874 100.572C107.523 100.002 107.347 99.3652 107.347 98.6621C107.347 97.9824 107.48 97.3848 107.745 96.8691C108.011 96.3457 108.394 95.9121 108.894 95.5684C109.394 95.2168 109.995 94.9512 110.699 94.7715C111.402 94.5918 112.187 94.502 113.054 94.502H115.574ZM122.945 92.2168V102.189H120.777V89.5098H122.828L122.945 92.2168ZM122.429 95.3691L121.527 95.334C121.535 94.4668 121.663 93.666 121.913 92.9316C122.163 92.1895 122.515 91.5449 122.968 90.998C123.421 90.4512 123.96 90.0293 124.585 89.7324C125.218 89.4277 125.917 89.2754 126.683 89.2754C127.308 89.2754 127.87 89.3613 128.37 89.5332C128.87 89.6973 129.296 89.9629 129.648 90.3301C130.007 90.6973 130.281 91.1738 130.468 91.7598C130.656 92.3379 130.749 93.0449 130.749 93.8809V102.189H128.57V93.8574C128.57 93.1934 128.472 92.6621 128.277 92.2637C128.081 91.8574 127.796 91.5645 127.421 91.3848C127.046 91.1973 126.585 91.1035 126.038 91.1035C125.499 91.1035 125.007 91.2168 124.562 91.4434C124.124 91.6699 123.745 91.9824 123.425 92.3809C123.113 92.7793 122.867 93.2363 122.687 93.752C122.515 94.2598 122.429 94.7988 122.429 95.3691ZM141.425 98.8262C141.425 98.5137 141.355 98.2246 141.214 97.959C141.081 97.6855 140.804 97.4395 140.382 97.2207C139.968 96.9941 139.343 96.7988 138.507 96.6348C137.804 96.4863 137.167 96.3105 136.597 96.1074C136.035 95.9043 135.554 95.6582 135.156 95.3691C134.765 95.0801 134.464 94.7402 134.253 94.3496C134.042 93.959 133.937 93.502 133.937 92.9785C133.937 92.4785 134.046 92.0059 134.265 91.5605C134.492 91.1152 134.808 90.7207 135.214 90.377C135.628 90.0332 136.124 89.7637 136.703 89.5684C137.281 89.373 137.925 89.2754 138.636 89.2754C139.652 89.2754 140.519 89.4551 141.238 89.8145C141.956 90.1738 142.507 90.6543 142.89 91.2559C143.273 91.8496 143.464 92.5098 143.464 93.2363H141.296C141.296 92.8848 141.191 92.5449 140.98 92.2168C140.777 91.8809 140.476 91.6035 140.078 91.3848C139.687 91.166 139.206 91.0566 138.636 91.0566C138.035 91.0566 137.546 91.1504 137.171 91.3379C136.804 91.5176 136.535 91.748 136.363 92.0293C136.199 92.3105 136.117 92.6074 136.117 92.9199C136.117 93.1543 136.156 93.3652 136.234 93.5527C136.32 93.7324 136.468 93.9004 136.679 94.0566C136.89 94.2051 137.187 94.3457 137.57 94.4785C137.953 94.6113 138.441 94.7441 139.035 94.877C140.074 95.1113 140.929 95.3926 141.601 95.7207C142.273 96.0488 142.773 96.4512 143.101 96.9277C143.429 97.4043 143.593 97.9824 143.593 98.6621C143.593 99.2168 143.476 99.7246 143.242 100.186C143.015 100.646 142.683 101.045 142.245 101.381C141.816 101.709 141.3 101.967 140.699 102.154C140.105 102.334 139.437 102.424 138.695 102.424C137.578 102.424 136.632 102.225 135.859 101.826C135.085 101.428 134.499 100.912 134.101 100.279C133.703 99.6465 133.503 98.9785 133.503 98.2754H135.683C135.714 98.8691 135.886 99.3418 136.199 99.6934C136.511 100.037 136.894 100.283 137.347 100.432C137.8 100.572 138.249 100.643 138.695 100.643C139.288 100.643 139.785 100.564 140.183 100.408C140.589 100.252 140.898 100.037 141.109 99.7637C141.32 99.4902 141.425 99.1777 141.425 98.8262ZM148.609 84.1895V102.189H146.441V84.1895H148.609ZM148.093 95.3691L147.191 95.334C147.199 94.4668 147.328 93.666 147.578 92.9316C147.828 92.1895 148.179 91.5449 148.632 90.998C149.085 90.4512 149.624 90.0293 150.249 89.7324C150.882 89.4277 151.581 89.2754 152.347 89.2754C152.972 89.2754 153.535 89.3613 154.035 89.5332C154.535 89.6973 154.96 89.9629 155.312 90.3301C155.671 90.6973 155.945 91.1738 156.132 91.7598C156.32 92.3379 156.413 93.0449 156.413 93.8809V102.189H154.234V93.8574C154.234 93.1934 154.136 92.6621 153.941 92.2637C153.745 91.8574 153.46 91.5645 153.085 91.3848C152.71 91.1973 152.249 91.1035 151.703 91.1035C151.163 91.1035 150.671 91.2168 150.226 91.4434C149.788 91.6699 149.41 91.9824 149.089 92.3809C148.777 92.7793 148.531 93.2363 148.351 93.752C148.179 94.2598 148.093 94.7988 148.093 95.3691ZM167.417 99.2598V89.5098H169.597V102.189H167.523L167.417 99.2598ZM167.828 96.5879L168.73 96.5645C168.73 97.4082 168.64 98.1895 168.46 98.9082C168.288 99.6191 168.007 100.236 167.617 100.76C167.226 101.283 166.714 101.693 166.081 101.99C165.449 102.279 164.679 102.424 163.773 102.424C163.156 102.424 162.589 102.334 162.074 102.154C161.566 101.975 161.128 101.697 160.761 101.322C160.394 100.947 160.109 100.459 159.906 99.8574C159.71 99.2559 159.613 98.5332 159.613 97.6895V89.5098H161.781V97.7129C161.781 98.2832 161.843 98.7559 161.968 99.1309C162.101 99.498 162.277 99.791 162.495 100.01C162.722 100.221 162.972 100.369 163.245 100.455C163.527 100.541 163.816 100.584 164.113 100.584C165.035 100.584 165.765 100.408 166.304 100.057C166.843 99.6973 167.23 99.2168 167.464 98.6152C167.706 98.0059 167.828 97.3301 167.828 96.5879Z" fill="black"/>
<defs>
<linearGradient id="paint0_linear_3_24" x1="123" y1="0" x2="123" y2="167" gradientUnits="userSpaceOnUse">
<stop stop-color="#2081C3"/>
<stop offset="1" stop-color="#D7F712"/>
</linearGradient>
</defs>
</svg>
